<svg width="23" height="16" viewBox="0 0 23 16" fill="none" xmlns="http://www.w3.org/2000/svg">
<rect x="0.5" y="0.5" width="22" height="15" rx="2" fill="white" stroke="#D9D9D9"/>
<path d="M14.9745 2.99248C17.75 2.99261 19.9999 5.20605 19.9999 7.93584C19.9996 10.6654 17.7499 12.8781 14.9745 12.8782C13.73 12.8782 12.5915 12.4325 11.7137 11.6956C10.8361 12.4322 9.6982 12.8782 8.45398 12.8782C5.6785 12.878 3.42859 10.6646 3.42859 7.93486C3.42885 5.20533 5.67866 2.99267 8.45398 2.99248C9.69798 2.99248 10.8361 3.43777 11.7137 4.17412C12.5914 3.43745 13.7302 2.99248 14.9745 2.99248Z" fill="#ED0006"/>
<path d="M14.9741 2.99248C17.7497 2.99248 20.0004 5.20597 20.0004 7.93584C20.0002 10.6655 17.7495 12.8782 14.9741 12.8782C13.7295 12.8782 12.592 12.4316 11.7143 11.6946C12.794 10.7881 13.4798 9.44143 13.4799 7.93584C13.4799 6.42982 12.7944 5.0817 11.7143 4.17509C12.592 3.43838 13.7298 2.99252 14.9741 2.99248Z" fill="#F9A000"/>
<path d="M11.7142 4.1743C12.7945 5.08084 13.4797 6.42895 13.4798 7.93504C13.4798 9.44112 12.7943 10.7892 11.7142 11.6958C10.6341 10.7892 9.94855 9.44103 9.94855 7.93504C9.94866 6.42903 10.634 5.08083 11.7142 4.1743Z" fill="#FF5E00"/>
</svg>
